<svg xmlns="http://www.w3.org/2000/svg" version="1.1" xmlns:xlink="http://www.w3.org/1999/xlink" xmlns:svgjs="http://svgjs.dev/svgjs" width="1500" height="1500" viewBox="0 0 1500 1500"><rect width="1500" height="1500" fill="#5e1914"></rect><g transform="matrix(0.6666666666666666,0,0,0.6666666666666666,249.24207248658223,377.8032258064516)"><svg viewBox="0 0 334 248" data-background-color="#5e1914" preserveAspectRatio="xMidYMid meet" height="1113" width="1500" xmlns="http://www.w3.org/2000/svg" xmlns:xlink="http://www.w3.org/1999/xlink"><g id="tight-bounds" transform="matrix(1,0,0,1,0.25314778948154526,0.4000000000000057)"><svg viewBox="0 0 333.4937044210369 247.2" height="247.2" width="333.4937044210369"><g><svg viewBox="0 0 395.52 293.1765808585155" height="247.2" width="333.4937044210369"><g transform="matrix(1,0,0,1,0,176.34188744346466)"><svg viewBox="0 0 395.52 116.83469341505082" height="116.83469341505082" width="395.52"><g id="textblocktransform"><svg viewBox="0 0 395.52 116.83469341505082" height="116.83469341505082" width="395.52" id="textblock"><g><svg viewBox="0 0 395.52 63.015050847457616" height="63.015050847457616" width="395.52"><g transform="matrix(1,0,0,1,0,0)"><svg width="395.52" viewBox="-0.15 -33 221.23000000000002 35.25" height="63.015050847457616" data-palette-color="#ffffff"><path d="M8.85 0L4.35 0 4.35-17.5Q4.35-19.75 3.73-21.13 3.1-22.5 0.85-22.5L0.85-22.5-0.15-22.5-0.15-23.5 4.35-23.5Q6.1-23.5 7.08-23.05 8.05-22.6 8.45-21.3 8.85-20 8.85-17.5L8.85-17.5 8.85 0ZM6.25-26.5L6.25-26.5Q5.1-26.5 4.28-27.45 3.45-28.4 3.45-29.7L3.45-29.7Q3.45-30.75 4.08-31.35 4.7-31.95 5.75-31.95L5.75-31.95Q6.9-31.95 7.73-31 8.55-30.05 8.55-28.75L8.55-28.75Q8.55-27.7 7.93-27.1 7.3-26.5 6.25-26.5ZM54.35 1.25L54.35 2.25Q50.75 2.25 48.72 1.13 46.7 0 45.9-2.38 45.1-4.75 45.1-8.5L45.1-8.5 45.1-27.75 32.6 0 31.6 0 18.6-28.25 18.6 0 16.6 0 16.6-33 21.35-33 33.35-7 45.1-33 49.6-33 49.6-8.5Q49.6-3.95 50.75-1.35 51.9 1.25 54.35 1.25L54.35 1.25ZM66.94 0.5L66.94 0.5Q63.45 0.5 61.12-1.15 58.8-2.8 57.62-5.6 56.45-8.4 56.45-11.75L56.45-11.75Q56.45-15.15 57.65-17.93 58.84-20.7 61.09-22.35 63.34-24 66.44-24L66.44-24Q69.84-24 72.07-22.73 74.3-21.45 75.37-19 76.44-16.55 76.44-13L76.44-13 76.34-11 61.2-11Q61.2-6.9 62.97-4.2 64.75-1.5 67.94-1.5L67.94-1.5Q70.39-1.5 72.02-2.55 73.65-3.6 74.94-5.5L74.94-5.5 75.94-4.75Q74.84-2.85 73.47-1.7 72.09-0.55 70.47-0.03 68.84 0.5 66.94 0.5ZM61.2-13L61.2-13 71.69-13Q71.69-17.35 70.39-19.68 69.09-22 66.44-22L66.44-22Q64.94-22 63.77-20.83 62.59-19.65 61.9-17.63 61.2-15.6 61.2-13ZM87.44 0L82.94 0 82.94-17.5Q82.94-19.75 82.32-21.13 81.69-22.5 79.44-22.5L79.44-22.5 78.44-22.5 78.44-23.5 82.94-23.5Q84.84-23.5 85.82-22.98 86.79-22.45 87.19-21.5L87.19-21.5 87.44-21.5Q88.39-22.45 90.04-23.23 91.69-24 93.94-24L93.94-24Q95.24-24 96.37-23.7 97.49-23.4 98.42-22.65 99.34-21.9 99.94-20.5L99.94-20.5Q101.24-22.2 103.29-23.1 105.34-24 107.44-24L107.44-24Q109.34-24 110.92-23.25 112.49-22.5 113.47-20.58 114.44-18.65 114.44-15L114.44-15 114.44 0 109.94 0 109.94-15Q109.94-18.75 108.89-20.25 107.84-21.75 105.94-21.75L105.94-21.75Q104.49-21.75 102.94-20.7 101.39-19.65 100.69-18.5L100.69-18.5Q100.89-17.95 100.92-16.85 100.94-15.75 100.94-15L100.94-15 100.94 0 96.44 0 96.44-15Q96.44-18.75 95.39-20.25 94.34-21.75 92.44-21.75L92.44-21.75Q90.94-21.75 89.67-20.95 88.39-20.15 87.44-19.1L87.44-19.1 87.44 0ZM131.09 0.5L131.09 0.5Q127.59 0.5 125.14-1.15 122.69-2.8 121.39-5.6 120.09-8.4 120.09-11.75L120.09-11.75Q120.09-15.15 121.39-17.93 122.69-20.7 125.14-22.35 127.59-24 131.09-24L131.09-24Q134.59-24 137.04-22.35 139.49-20.7 140.79-17.93 142.09-15.15 142.09-11.75L142.09-11.75Q142.09-8.4 140.79-5.6 139.49-2.8 137.04-1.15 134.59 0.5 131.09 0.5ZM131.09-1.5L131.09-1.5Q132.99-1.5 134.39-2.88 135.79-4.25 136.56-6.58 137.34-8.9 137.34-11.75L137.34-11.75Q137.34-14.65 136.56-16.95 135.79-19.25 134.39-20.63 132.99-22 131.09-22L131.09-22Q129.24-22 127.81-20.63 126.39-19.25 125.62-16.95 124.84-14.65 124.84-11.75L124.84-11.75Q124.84-8.9 125.62-6.58 126.39-4.25 127.81-2.88 129.24-1.5 131.09-1.5ZM152.84 0L148.34 0 148.34-17.5Q148.34-19.75 147.71-21.13 147.09-22.5 144.84-22.5L144.84-22.5 144.34-22.5 144.34-23.5 148.34-23.5Q150.24-23.5 151.21-22.95 152.19-22.4 152.59-21.25L152.59-21.25Q153.44-22.1 155.06-23.05 156.69-24 158.84-24L158.84-24Q159.59-24 160.44-23.83 161.29-23.65 161.84-23.25L161.84-23.25Q162.39-22.85 162.79-22.3 163.19-21.75 163.59-21L163.59-21 161.59-19.5Q161.04-20.25 159.96-20.63 158.89-21 157.59-21L157.59-21Q156.09-21 154.84-20.33 153.59-19.65 152.84-18.5L152.84-18.5Q152.84-18.25 152.84-17.78 152.84-17.3 152.84-17L152.84-17 152.84 0ZM173.03 0L168.53 0 168.53-17.5Q168.53-19.75 167.91-21.13 167.28-22.5 165.03-22.5L165.03-22.5 164.03-22.5 164.03-23.5 168.53-23.5Q170.28-23.5 171.26-23.05 172.24-22.6 172.63-21.3 173.03-20 173.03-17.5L173.03-17.5 173.03 0ZM170.44-26.5L170.44-26.5Q169.28-26.5 168.46-27.45 167.63-28.4 167.63-29.7L167.63-29.7Q167.63-30.75 168.26-31.35 168.88-31.95 169.94-31.95L169.94-31.95Q171.09-31.95 171.91-31 172.74-30.05 172.74-28.75L172.74-28.75Q172.74-27.7 172.11-27.1 171.49-26.5 170.44-26.5ZM189.23 0.5L189.23 0.5Q185.73 0.5 183.41-1.15 181.08-2.8 179.91-5.6 178.73-8.4 178.73-11.75L178.73-11.75Q178.73-15.15 179.93-17.93 181.13-20.7 183.38-22.35 185.63-24 188.73-24L188.73-24Q192.13-24 194.36-22.73 196.58-21.45 197.66-19 198.73-16.55 198.73-13L198.73-13 198.63-11 183.48-11Q183.48-6.9 185.26-4.2 187.03-1.5 190.23-1.5L190.23-1.5Q192.68-1.5 194.31-2.55 195.93-3.6 197.23-5.5L197.23-5.5 198.23-4.75Q197.13-2.85 195.76-1.7 194.38-0.55 192.76-0.03 191.13 0.5 189.23 0.5ZM183.48-13L183.48-13 193.98-13Q193.98-17.35 192.68-19.68 191.38-22 188.73-22L188.73-22Q187.23-22 186.06-20.83 184.88-19.65 184.18-17.63 183.48-15.6 183.48-13ZM212.33 0.5L212.33 0.5Q209.33 0.5 207.43-0.03 205.53-0.55 204.58-1.5L204.58-1.5Q203.63-2.45 203.48-3.65 203.33-4.85 203.33-6.75L203.33-6.75 204.33-6.75Q204.73-4.3 206.43-2.9 208.13-1.5 211.33-1.5L211.33-1.5Q214.18-1.5 215.51-2.5 216.83-3.5 216.83-5L216.83-5Q216.83-6.5 215.71-7.53 214.58-8.55 212.33-9.5L212.33-9.5 209.33-10.75Q206.48-11.9 204.91-13.48 203.33-15.05 203.33-17.5L203.33-17.5Q203.33-20.65 205.68-22.33 208.03-24 211.58-24L211.58-24Q214.43-24 216.28-23.48 218.13-22.95 219.08-22L219.08-22Q220.03-21.05 220.18-19.85 220.33-18.65 220.33-16.75L220.33-16.75 219.33-16.75Q218.93-19.2 217.26-20.6 215.58-22 212.58-22L212.58-22Q210.13-22 208.86-21 207.58-20 207.58-18.5L207.58-18.5Q207.58-17.2 208.63-16.13 209.68-15.05 211.58-14.25L211.58-14.25 214.58-13Q217.78-11.7 219.43-10.15 221.08-8.6 221.08-6L221.08-6Q221.08-2.85 218.58-1.18 216.08 0.5 212.33 0.5Z" opacity="1" transform="matrix(1,0,0,1,0,0)" fill="#ffffff" class="wordmark-text-0" data-fill-palette-color="primary" id="text-0"></path></svg></g></svg></g><g transform="matrix(1,0,0,1,85.06839776891057,77.89139199132202)"><svg viewBox="0 0 225.38320446217884 38.943301423728805" height="38.943301423728805" width="225.38320446217884"><g transform="matrix(1,0,0,1,0,0)"><svg width="225.38320446217884" viewBox="0.4 -38.6 326.37333332000003 56.400000000000006" height="38.943301423728805" data-palette-color="#ffffff"><path d="M5.7 0L5.7 0Q5.15 0 4.65-0.38 4.15-0.75 4.2-1.45L4.2-1.45 7.55-32.5Q7.65-33.1 8.1-33.43 8.55-33.75 9.05-33.75L9.05-33.75Q9.65-33.75 10.13-33.35 10.6-32.95 10.5-32.15L10.5-32.15 7.2-1.35Q7.1-0.65 6.68-0.33 6.25 0 5.7 0ZM14.15-18.1L2.1-18.1Q1.2-18.1 0.8-18.53 0.4-18.95 0.4-19.5L0.4-19.5Q0.4-20.05 0.7-20.43 1-20.8 1.9-20.8L1.9-20.8 13.95-20.8Q14.85-20.8 15.2-20.43 15.55-20.05 15.55-19.5L15.55-19.5Q15.55-18.95 15.3-18.53 15.05-18.1 14.15-18.1L14.15-18.1ZM19.3 0L19.3 0Q18.75 0 18.32-0.35 17.9-0.7 17.95-1.35L17.95-1.35 21.75-37Q21.85-37.85 22.37-38.23 22.9-38.6 23.5-38.6L23.5-38.6Q24.05-38.6 24.45-38.23 24.85-37.85 24.75-37L24.75-37 20.95-1.35Q20.85-0.65 20.37-0.33 19.9 0 19.3 0ZM30.85 0L30.85 0Q29.9 0 29.67-0.58 29.45-1.15 29.55-1.85L29.55-1.85 30.95-13.9Q31.2-15.85 30.7-16.98 30.2-18.1 29.1-18.1L29.1-18.1Q27.25-18.1 25.35-15.5 23.45-12.9 20.65-6.75L20.65-6.75 21.2-13.4Q22.95-16.95 24.9-19 26.85-21.05 29.3-21.05L29.3-21.05Q31.85-21.05 33.1-19.13 34.35-17.2 33.95-13.9L33.95-13.9 32.45-1.85Q32.4-1.25 32.2-0.63 32 0 30.85 0ZM45 0.05L45 0.05Q43.05 0.05 41.67-0.85 40.3-1.75 39.47-3.25 38.65-4.75 38.35-6.63 38.05-8.5 38.25-10.45L38.25-10.45Q38.65-13.9 39.92-16.25 41.2-18.6 43.1-19.83 45-21.05 47.2-21.05L47.2-21.05Q48.65-21.05 49.92-20.48 51.2-19.9 52-18.98 52.8-18.05 52.8-16.95L52.8-16.95Q52.8-15.8 51.67-14.43 50.55-13.05 48.75-11.65 46.95-10.25 44.92-8.93 42.9-7.6 41.1-6.45L41.1-6.45 40.75-9.35Q42.1-10.2 43.67-11.25 45.25-12.3 46.65-13.38 48.05-14.45 48.92-15.33 49.8-16.2 49.8-16.7L49.8-16.7Q49.8-17.25 49.15-17.78 48.5-18.3 47.1-18.3L47.1-18.3Q44.95-18.3 43.3-16.2 41.65-14.1 41.25-10.3L41.25-10.3Q41.05-8.35 41.37-6.6 41.7-4.85 42.67-3.75 43.65-2.65 45.3-2.65L45.3-2.65Q46.45-2.65 47.6-3.53 48.75-4.4 49.55-6L49.55-6Q49.8-6.45 50.37-6.6 50.95-6.75 51.5-6.4L51.5-6.4Q52.05-6.1 52.2-5.55 52.35-5 52.1-4.55L52.1-4.55Q51-2.55 49.25-1.25 47.5 0.05 45 0.05ZM70.34 17.8L70.34 17.8Q69.79 17.8 69.37 17.38 68.94 16.95 69.04 16.05L69.04 16.05 72.69-19.15Q72.79-19.95 73.29-20.38 73.79-20.8 74.29-20.8L74.29-20.8Q74.89-20.8 75.34-20.4 75.79-20 75.69-19.15L75.69-19.15 71.99 16.2Q71.94 17 71.42 17.4 70.89 17.8 70.34 17.8ZM79.04 0.05L79.04 0.05Q77.74 0.05 76.24-0.45 74.74-0.95 73.59-2.2L73.59-2.2 73.89-5.25Q74.74-3.95 76.32-3.3 77.89-2.65 79.14-2.65L79.14-2.65Q81.34-2.65 82.97-4.67 84.59-6.7 84.99-10.5L84.99-10.5Q85.24-12.45 84.92-14.23 84.59-16 83.67-17.15 82.74-18.3 81.19-18.3L81.19-18.3Q79.94-18.3 78.84-17.15 77.74-16 76.84-14.18 75.94-12.35 75.27-10.28 74.59-8.2 74.24-6.3L74.24-6.3 75.09-15.9Q75.59-16.95 76.24-17.88 76.89-18.8 77.69-19.53 78.49-20.25 79.39-20.65 80.29-21.05 81.24-21.05L81.24-21.05Q83.84-21.05 85.42-19.45 86.99-17.85 87.62-15.4 88.24-12.95 87.99-10.35L87.99-10.35Q87.64-6.95 86.34-4.63 85.04-2.3 83.14-1.13 81.24 0.05 79.04 0.05ZM98.84 0.05L98.84 0.05Q96.24 0.05 94.66-1.5 93.09-3.05 92.46-5.45 91.84-7.85 92.09-10.45L92.09-10.45Q92.49-13.9 93.76-16.25 95.04-18.6 96.94-19.83 98.84-21.05 101.04-21.05L101.04-21.05Q102.34-21.05 103.86-20.45 105.39-19.85 106.49-18.6L106.49-18.6 106.19-15.85Q105.34-17.15 103.79-17.73 102.24-18.3 100.94-18.3L100.94-18.3Q98.79-18.3 97.14-16.2 95.49-14.1 95.09-10.3L95.09-10.3Q94.89-8.35 95.19-6.6 95.49-4.85 96.41-3.75 97.34-2.65 98.89-2.65L98.89-2.65Q100.14-2.65 101.24-3.78 102.34-4.9 103.26-6.68 104.19-8.45 104.84-10.53 105.49-12.6 105.84-14.5L105.84-14.5 104.99-4.85Q104.49-3.8 103.84-2.93 103.19-2.05 102.39-1.38 101.59-0.7 100.71-0.33 99.84 0.05 98.84 0.05ZM105.79 0L105.79 0Q105.19 0 104.76-0.43 104.34-0.85 104.39-1.65L104.39-1.65 106.24-19.2Q106.34-20 106.84-20.4 107.34-20.8 107.89-20.8L107.89-20.8Q108.44-20.8 108.89-20.35 109.34-19.9 109.24-19L109.24-19 107.39-1.65Q107.29-0.85 106.81-0.43 106.34 0 105.79 0ZM120.04 0.05L120.04 0.05Q117.89 0.05 116.24-0.6 114.59-1.25 113.44-2.3L113.44-2.3Q112.74-2.95 112.44-3.63 112.14-4.3 112.64-4.85L112.64-4.85Q113.19-5.5 113.71-5.53 114.24-5.55 114.84-5L114.84-5Q115.74-4.25 117.09-3.58 118.44-2.9 120.14-2.9L120.14-2.9Q121.54-2.9 122.29-3.58 123.04-4.25 123.04-5.4L123.04-5.4Q123.04-6.15 122.61-6.8 122.19-7.45 121.04-8.3 119.89-9.15 117.59-10.5L117.59-10.5Q115.74-11.6 114.79-12.83 113.84-14.05 113.84-15.9L113.84-15.9Q113.84-18.2 115.56-19.63 117.29-21.05 120.24-21.05L120.24-21.05Q121.44-21.05 122.84-20.65 124.24-20.25 125.74-19.3L125.74-19.3Q126.59-18.8 126.94-17.98 127.29-17.15 126.89-16.55L126.89-16.55Q126.54-15.95 125.89-16 125.24-16.05 124.54-16.55L124.54-16.55Q123.79-17.1 122.61-17.57 121.44-18.05 119.84-18.05L119.84-18.05Q118.39-18.05 117.59-17.45 116.79-16.85 116.79-15.85L116.79-15.85Q116.79-14.9 117.44-14.28 118.09-13.65 119.49-12.85L119.49-12.85Q122.19-11.25 123.61-10.15 125.04-9.05 125.54-8 126.04-6.95 126.04-5.5L126.04-5.5Q126.04-3.8 125.29-2.55 124.54-1.3 123.21-0.63 121.89 0.05 120.04 0.05ZM135.33 0L135.33 0Q134.78 0 134.28-0.38 133.78-0.75 133.83-1.45L133.83-1.45 137.18-32.5Q137.28-33.1 137.73-33.43 138.18-33.75 138.68-33.75L138.68-33.75Q139.28-33.75 139.76-33.35 140.23-32.95 140.13-32.15L140.13-32.15 136.83-1.35Q136.73-0.65 136.31-0.33 135.88 0 135.33 0ZM143.78-18.1L131.73-18.1Q130.83-18.1 130.43-18.53 130.03-18.95 130.03-19.5L130.03-19.5Q130.03-20.05 130.33-20.43 130.63-20.8 131.53-20.8L131.53-20.8 143.58-20.8Q144.48-20.8 144.83-20.43 145.18-20.05 145.18-19.5L145.18-19.5Q145.18-18.95 144.93-18.53 144.68-18.1 143.78-18.1L143.78-18.1ZM163.33 0L163.33 0Q162.73 0 162.3-0.43 161.88-0.85 161.98-1.65L161.98-1.65 163.78-19.2Q163.88-20 164.38-20.4 164.88-20.8 165.48-20.8L165.48-20.8Q166.03-20.8 166.45-20.35 166.88-19.9 166.78-19L166.78-19 164.93-1.65Q164.88-0.85 164.38-0.43 163.88 0 163.33 0ZM165.98-25.4L165.98-25.4Q165.13-25.4 164.4-26.1 163.68-26.8 163.68-27.75L163.68-27.75Q163.68-28.7 164.35-29.35 165.03-30 165.98-30L165.98-30Q166.88-30 167.55-29.38 168.23-28.75 168.23-27.75L168.23-27.75Q168.23-26.8 167.58-26.1 166.93-25.4 165.98-25.4ZM178.18 0.05L178.18 0.05Q176.03 0.05 174.38-0.6 172.73-1.25 171.58-2.3L171.58-2.3Q170.88-2.95 170.58-3.63 170.28-4.3 170.78-4.85L170.78-4.85Q171.33-5.5 171.85-5.53 172.38-5.55 172.98-5L172.98-5Q173.88-4.25 175.23-3.58 176.58-2.9 178.28-2.9L178.28-2.9Q179.68-2.9 180.43-3.58 181.18-4.25 181.18-5.4L181.18-5.4Q181.18-6.15 180.75-6.8 180.33-7.45 179.18-8.3 178.03-9.15 175.73-10.5L175.73-10.5Q173.88-11.6 172.93-12.83 171.98-14.05 171.98-15.9L171.98-15.9Q171.98-18.2 173.7-19.63 175.43-21.05 178.38-21.05L178.38-21.05Q179.58-21.05 180.98-20.65 182.38-20.25 183.88-19.3L183.88-19.3Q184.73-18.8 185.08-17.98 185.43-17.15 185.03-16.55L185.03-16.55Q184.68-15.95 184.03-16 183.38-16.05 182.68-16.55L182.68-16.55Q181.93-17.1 180.75-17.57 179.58-18.05 177.98-18.05L177.98-18.05Q176.53-18.05 175.73-17.45 174.93-16.85 174.93-15.85L174.93-15.85Q174.93-14.9 175.58-14.28 176.23-13.65 177.63-12.85L177.63-12.85Q180.33-11.25 181.75-10.15 183.18-9.05 183.68-8 184.18-6.95 184.18-5.5L184.18-5.5Q184.18-3.8 183.43-2.55 182.68-1.3 181.35-0.63 180.03 0.05 178.18 0.05ZM206.37-1.25L206.37-1.25 202.92-18.3Q202.72-19.5 203.12-20.15 203.52-20.8 204.32-20.8L204.32-20.8Q204.77-20.8 205.17-20.5 205.57-20.2 205.62-19.8L205.62-19.8 208.47-4.2 208.02-4.35 214.92-19.95Q215.12-20.35 215.5-20.58 215.87-20.8 216.32-20.8L216.32-20.8Q216.77-20.8 217.17-20.5 217.57-20.2 217.62-19.8L217.62-19.8 220.57-4.2 220.07-4.35 226.92-19.95Q227.12-20.35 227.5-20.6 227.87-20.85 228.32-20.8L228.32-20.8Q229.17-20.7 229.57-20.1 229.97-19.5 229.47-18.35L229.47-18.35 221.52-1.15Q221.17-0.45 220.77-0.23 220.37 0 219.82 0L219.82 0Q219.32 0 218.9-0.28 218.47-0.55 218.37-1.25L218.37-1.25 215.57-16.2 216.22-16.1 209.52-1.15Q209.17-0.45 208.77-0.23 208.37 0 207.82 0L207.82 0Q207.32 0 206.9-0.28 206.47-0.55 206.37-1.25ZM233.47 0L233.47 0Q232.87 0 232.44-0.43 232.02-0.85 232.12-1.65L232.12-1.65 233.92-19.2Q234.02-20 234.52-20.4 235.02-20.8 235.62-20.8L235.62-20.8Q236.17-20.8 236.59-20.35 237.02-19.9 236.92-19L236.92-19 235.07-1.65Q235.02-0.85 234.52-0.43 234.02 0 233.47 0ZM236.12-25.4L236.12-25.4Q235.27-25.4 234.54-26.1 233.82-26.8 233.82-27.75L233.82-27.75Q233.82-28.7 234.49-29.35 235.17-30 236.12-30L236.12-30Q237.02-30 237.69-29.38 238.37-28.75 238.37-27.75L238.37-27.75Q238.37-26.8 237.72-26.1 237.07-25.4 236.12-25.4ZM245.92 0L245.92 0Q245.37 0 244.87-0.38 244.37-0.75 244.42-1.45L244.42-1.45 247.77-32.5Q247.87-33.1 248.32-33.43 248.77-33.75 249.27-33.75L249.27-33.75Q249.87-33.75 250.34-33.35 250.82-32.95 250.72-32.15L250.72-32.15 247.42-1.35Q247.32-0.65 246.89-0.33 246.47 0 245.92 0ZM254.37-18.1L242.32-18.1Q241.42-18.1 241.02-18.53 240.62-18.95 240.62-19.5L240.62-19.5Q240.62-20.05 240.92-20.43 241.22-20.8 242.12-20.8L242.12-20.8 254.17-20.8Q255.07-20.8 255.42-20.43 255.77-20.05 255.77-19.5L255.77-19.5Q255.77-18.95 255.52-18.53 255.27-18.1 254.37-18.1L254.37-18.1ZM259.51 0L259.51 0Q258.96 0 258.54-0.35 258.11-0.7 258.16-1.35L258.16-1.35 261.96-37Q262.06-37.85 262.59-38.23 263.11-38.6 263.71-38.6L263.71-38.6Q264.26-38.6 264.66-38.23 265.06-37.85 264.96-37L264.96-37 261.16-1.35Q261.06-0.65 260.59-0.33 260.11 0 259.51 0ZM271.06 0L271.06 0Q270.11 0 269.89-0.58 269.66-1.15 269.76-1.85L269.76-1.85 271.16-13.9Q271.41-15.85 270.91-16.98 270.41-18.1 269.31-18.1L269.31-18.1Q267.46-18.1 265.56-15.5 263.66-12.9 260.86-6.75L260.86-6.75 261.41-13.4Q263.16-16.95 265.11-19 267.06-21.05 269.51-21.05L269.51-21.05Q272.06-21.05 273.31-19.13 274.56-17.2 274.16-13.9L274.16-13.9 272.66-1.85Q272.61-1.25 272.41-0.63 272.21 0 271.06 0ZM297.61 0.05L297.61 0.05Q295.01 0.05 293.81-1.98 292.61-4 292.96-6.9L292.96-6.9 294.41-19.2Q294.46-19.7 294.71-20.25 294.96-20.8 295.96-20.8L295.96-20.8Q296.96-20.8 297.16-20.25 297.36-19.7 297.26-19.05L297.26-19.05 295.96-6.9Q295.76-5.1 296.21-3.98 296.66-2.85 297.76-2.85L297.76-2.85Q299.01-2.85 300.28-3.85 301.56-4.85 303.06-7.23 304.56-9.6 306.41-13.65L306.41-13.65 305.86-7.15Q304.01-3.95 302.03-1.95 300.06 0.05 297.61 0.05ZM305.21 0L305.21 0Q304.46 0 304.23-0.43 304.01-0.85 304.06-1.6L304.06-1.6 305.96-19.2Q306.01-19.7 306.31-20.25 306.61-20.8 307.56-20.8L307.56-20.8Q308.51-20.8 308.76-20.25 309.01-19.7 308.91-19.05L308.91-19.05 307.06-1.6Q306.96-0.8 306.53-0.4 306.11 0 305.21 0ZM319.71 0.05L319.71 0.05Q317.56 0.05 315.91-0.6 314.26-1.25 313.11-2.3L313.11-2.3Q312.41-2.95 312.11-3.63 311.81-4.3 312.31-4.85L312.31-4.85Q312.86-5.5 313.38-5.53 313.91-5.55 314.51-5L314.51-5Q315.41-4.25 316.76-3.58 318.11-2.9 319.81-2.9L319.81-2.9Q321.21-2.9 321.96-3.58 322.71-4.25 322.71-5.4L322.71-5.4Q322.71-6.15 322.28-6.8 321.86-7.45 320.71-8.3 319.56-9.15 317.26-10.5L317.26-10.5Q315.41-11.6 314.46-12.83 313.51-14.05 313.51-15.9L313.51-15.9Q313.51-18.2 315.23-19.63 316.96-21.05 319.91-21.05L319.91-21.05Q321.11-21.05 322.51-20.65 323.91-20.25 325.41-19.3L325.41-19.3Q326.26-18.8 326.61-17.98 326.96-17.15 326.56-16.55L326.56-16.55Q326.21-15.95 325.56-16 324.91-16.05 324.21-16.55L324.21-16.55Q323.46-17.1 322.28-17.57 321.11-18.05 319.51-18.05L319.51-18.05Q318.06-18.05 317.26-17.45 316.46-16.85 316.46-15.85L316.46-15.85Q316.46-14.9 317.11-14.28 317.76-13.65 319.16-12.85L319.16-12.85Q321.86-11.25 323.28-10.15 324.71-9.05 325.21-8 325.71-6.95 325.71-5.5L325.71-5.5Q325.71-3.8 324.96-2.55 324.21-1.3 322.88-0.63 321.56 0.05 319.71 0.05Z" opacity="1" transform="matrix(1,0,0,1,0,0)" fill="#ffffff" class="slogan-text-1" data-fill-palette-color="secondary" id="text-1"></path></svg></g></svg></g></svg></g></svg></g><g transform="matrix(1,0,0,1,101.94021899909622,0)"><svg viewBox="0 0 191.63956200180755 161.46554629960025" height="161.46554629960025" width="191.63956200180755"><g><svg xmlns="http://www.w3.org/2000/svg" xmlns:xlink="http://www.w3.org/1999/xlink" version="1.1" x="8" y="0" viewBox="0 0 94.9341320540387 87.273" enable-background="new 0 0 94.934 87.273" xml:space="preserve" id="icon-0" width="175.63956200180755" height="161.46554629960025" class="icon-icon-0" data-fill-palette-color="accent"><path fill="#ffffff" d="M40.805 63.931C40.873 63.978 44.493 66.861 49.944 66.869 55.45 66.855 58.935 63.426 59.001 63.373A0.732 0.732 0 0 0 57.977 62.326C57.976 62.326 57.802 62.496 57.432 62.785 56.317 63.656 53.59 65.41 49.945 65.404 47.487 65.404 45.418 64.744 43.966 64.082A14 14 0 0 1 42.285 63.174C41.901 62.928 41.72 62.781 41.718 62.783A0.733 0.733 0 0 0 40.808 63.931zM53.505 61.859C54.446 61.859 55.208 60.623 55.208 59.097 55.208 57.574 54.446 56.337 53.505 56.337S51.803 57.573 51.803 59.097C51.803 60.623 52.563 61.859 53.505 61.859M45.988 61.859C46.927 61.859 47.69 60.623 47.69 59.097 47.69 57.574 46.927 56.337 45.988 56.337 45.047 56.337 44.284 57.573 44.284 59.097 44.284 60.623 45.046 61.859 45.988 61.859M35.273 34.642C35.271 34.642 35.013 34.924 34.483 35.376 32.887 36.748 29.013 39.492 23.828 39.484 20.34 39.484 17.406 38.454 15.341 37.416A19.5 19.5 0 0 1 12.95 35.996C12.401 35.613 12.132 35.372 12.131 35.372A0.715 0.715 0 0 0 11.119 35.441 0.713 0.713 0 0 0 11.188 36.454H11.185C11.25 36.503 16.271 40.909 23.827 40.922 31.439 40.903 36.263 35.671 36.326 35.617A0.72 0.72 0 0 0 36.289 34.6 0.724 0.724 0 0 0 35.273 34.642M28.734 33.997C30.034 33.997 31.086 32.291 31.086 30.182S30.031 26.366 28.734 26.366 26.381 28.074 26.381 30.182C26.38 32.289 27.435 33.997 28.734 33.997M83.523 37.937C83.521 37.937 83.297 38.176 82.83 38.567 81.426 39.75 78.012 42.117 73.446 42.112 70.372 42.112 67.787 41.222 65.968 40.327A17 17 0 0 1 63.861 39.1C63.379 38.769 63.145 38.562 63.142 38.564A0.696 0.696 0 0 0 62.237 39.623C62.299 39.668 66.748 43.494 73.446 43.504 80.198 43.487 84.474 38.942 84.532 38.891A0.695 0.695 0 1 0 83.523 37.937M93.429 43.418C95.429 42.314 94.859 41.576 94.859 41.576S94.289 40.839 92.41 39.316C91.766 38.795 91.387 38.268 91.16 37.799A20.6 20.6 0 0 0 93.684 27.893C93.682 16.468 84.424 7.21 73.001 7.208 61.576 7.21 52.314 16.468 52.314 27.894A20 20 0 0 0 52.396 29.628C52.411 29.781 52.424 29.934 52.442 30.087A20.6 20.6 0 0 0 54.967 38.02C54.957 38.057 54.941 38.094 54.928 38.131A16.76 16.76 0 0 0 38.834 41.152C38.75 41.082 38.671 41.009 38.584 40.942 43.515 36.667 46.641 30.362 46.641 23.32 46.639 10.44 36.201 0.002 23.322 0 10.442 0.002 0.002 10.44 0 23.322 0.002 30.574 3.314 37.054 8.509 41.33L8.503 41.325A17.7 17.7 0 0 0 4.762 45.64C1.315 51.183 0.373 58.509 0.362 66.456 0.433 67.446 0.983 67.729 1.216 67.915 1.71 68.227 2.156 68.366 2.683 68.54 3.455 68.784 4.331 69.009 4.975 69.214 5.078 69.247 5.175 69.28 5.261 69.312 5.566 73.078 7.426 75.646 10.169 76.783 13.027 78.013 16.534 78.064 20.542 78.078 21.524 78.078 22.539 78.072 23.586 78.072 28.146 78.062 32.185 78.092 35.486 77.121 35.436 78.002 35.406 78.894 35.404 79.803 35.478 80.783 36.009 81.032 36.19 81.182 36.595 81.434 36.877 81.508 37.211 81.621 37.601 81.744 38.016 81.853 38.35 81.953 38.637 84.121 39.873 85.775 41.588 86.461 43.461 87.254 45.592 87.26 47.98 87.273L49.789 87.271C52.627 87.259 55.161 87.304 57.33 86.597 58.408 86.238 59.426 85.636 60.16 84.685 60.747 83.929 61.116 83.003 61.283 81.953 61.559 81.869 61.907 81.771 62.232 81.672 62.512 81.584 62.78 81.5 63.072 81.361 63.221 81.287 63.38 81.211 63.588 81.035 63.772 80.873 64.152 80.519 64.174 79.803A65 65 0 0 0 64.131 77.664C64.506 77.701 64.887 77.736 65.276 77.769 68.007 77.99 70.944 78.078 73.235 78.078 75.705 78.078 78.628 77.92 81.313 77.588 84.013 77.244 86.415 76.779 88.08 75.969 88.768 75.639 89.33 75.055 89.611 74.414 89.901 73.771 89.96 73.137 89.965 72.541 89.952 71.236 89.673 69.953 89.658 68.691 90.129 68.529 90.851 68.332 91.502 68.13A9 9 0 0 0 92.647 67.706C92.832 67.616 93.017 67.522 93.241 67.331 93.441 67.155 93.813 66.796 93.833 66.099 93.821 59.119 93.2 52.654 90.237 47.714A15 15 0 0 0 88.703 45.618 3 3 0 0 0 90.037 45.292zM47.54 54.724C54.198 56.214 60.466 54.652 60.466 54.652S61.704 56.963 62.869 58.373C61.07 63.996 55.811 68.068 49.59 68.08 41.885 68.064 35.654 61.834 35.64 54.133L35.642 54.084 37.74 50.961C37.74 50.96 40.884 53.236 47.54 54.724M51.993 70.816C51.904 70.988 51.805 71.156 51.681 71.296 51.279 71.737 50.785 72.107 49.525 72.126 47.804 72.079 47.35 71.478 46.92 70.78L46.917 70.776C47.79 70.915 48.677 71.006 49.59 71.006 50.408 71.007 51.205 70.931 51.993 70.816M22.788 75.203C22.018 75.205 21.266 75.207 20.542 75.207 16.584 75.225 13.327 75.061 11.322 74.154 9.373 73.226 8.326 71.99 8.088 68.457A2 2 0 0 0 7.842 67.682C7.725 67.188 7.277 65.065 7.421 62.186 7.584 58.889 7.82 53.803 7.82 53.803L6.072 66.56C5.452 66.345 4.803 66.187 4.159 65.988 3.814 65.888 3.487 65.787 3.235 65.699 3.291 58.289 4.323 51.732 7.196 47.164 8.202 45.576 9.423 44.201 10.92 43.066V43.064A23 23 0 0 0 14.396 44.865H14.394L13.075 46.328 15.454 48.205 14.332 50.158 22.788 61.138zM22.241 49.732L21.898 53.621C21.455 52.275 21.092 51.064 20.97 50.404A75 75 0 0 1 20.337 46.443C20.332 46.441 20.328 46.441 20.323 46.441 20.79 46.5 21.264 46.545 21.738 46.578L20.843 48.974zM20.963 56.044L16.327 50.021 17.609 47.787 15.501 46.121 16.076 45.486C16.907 45.756 17.754 45.986 18.623 46.164 18.779 47.365 19.02 49.035 19.337 50.711 19.562 51.863 20.254 54.007 20.963 56.044M23.322 43.767C12.562 43.747 3.767 35.453 2.943 24.906L6.949 18.939S11.294 22.083 20.491 24.14C29.69 26.198 38.35 24.042 38.35 24.042S40.796 28.601 42.589 30.144C39.774 38.073 32.22 43.75 23.322 43.767M30.33 51.703L26.038 56.846C26.633 55.053 27.262 53.022 27.636 51.362 28.081 49.387 28.486 47.426 28.775 45.991A24 24 0 0 0 30.749 45.429C31.073 46.331 31.381 47.302 31.559 47.882L28.728 50.159zM25.875 46.482C26.259 46.439 26.644 46.402 27.022 46.343L27.01 46.345A216 216 0 0 1 26.016 50.993 41 41 0 0 1 25.422 53.259L24.849 49.784 26.435 48.93zM35.806 73.964C34.984 74.329 33.999 74.601 32.824 74.79 30.547 75.163 27.678 75.2 24.452 75.202V61.339L32.599 51.579 31.242 50.268 33.48 48.469 33.321 47.938C33.314 47.92 32.854 46.34 32.314 44.838 32.306 44.842 32.301 44.842 32.296 44.844A23.3 23.3 0 0 0 36.215 42.749C36.41 42.886 36.59 43.034 36.774 43.181A16.8 16.8 0 0 0 32.774 52.88 15 15 0 0 0 32.714 54.064C32.714 54.087 32.711 54.109 32.711 54.132 32.711 54.679 32.742 55.218 32.793 55.751 33.212 60.122 35.302 63.999 38.413 66.755 38.311 66.901 38.204 67.044 38.109 67.198 36.878 69.171 36.186 71.474 35.806 73.964M60.409 79.156A7 7 0 0 0 59.574 79.461C59.57 79.463 59.564 79.467 59.561 79.467L58.568 72.237S58.715 75.387 58.817 77.43A13.3 13.3 0 0 1 58.668 80.246 1.7 1.7 0 0 0 58.452 80.943C58.388 81.922 58.148 82.494 57.845 82.89 57.404 83.468 56.593 83.878 55.172 84.107 53.775 84.334 51.911 84.343 49.789 84.341L47.98 84.343C45.647 84.357 43.768 84.238 42.76 83.775 41.81 83.287 41.378 82.898 41.212 80.953A2 2 0 0 0 40.956 80.168 13.6 13.6 0 0 1 40.819 77.43C40.922 75.387 41.068 72.237 41.068 72.237L40.074 79.475C39.489 79.2 38.97 79.104 38.439 78.934A1 1 0 0 0 38.341 78.905C38.41 74.78 39.043 71.192 40.59 68.759 40.648 68.671 40.713 68.589 40.773 68.503A17 17 0 0 0 43.627 69.905 6.6 6.6 0 0 0 44.336 72.163C45.039 73.589 46.824 75.106 49.526 75.059H49.656C52.248 75.059 53.965 73.541 54.625 72.121A6.9 6.9 0 0 0 55.279 70.004 17 17 0 0 0 58.827 68.248C58.943 68.41 59.066 68.568 59.175 68.74 60.662 71.152 61.189 74.756 61.242 78.912 60.988 78.988 60.69 79.072 60.409 79.156M91.042 65.349C90.623 65.49 89.989 65.673 89.417 65.843 89.239 65.896 89.067 65.95 88.896 66.009L88.134 62.353 86.51 54.556S86.399 59.296 86.544 62.218C86.648 64.269 86.804 66.62 86.891 67.847A9 9 0 0 0 86.868 68.536C86.877 70.21 87.187 71.663 87.175 72.538 87.177 72.923 87.122 73.159 87.074 73.257 87.019 73.349 87.023 73.37 86.835 73.476 85.804 74.001 83.504 74.519 80.969 74.824A66 66 0 0 1 73.232 75.293C71.015 75.293 68.128 75.207 65.498 74.994A53 53 0 0 1 63.944 74.848C63.648 72.034 63.007 69.432 61.676 67.219A11 11 0 0 0 61.134 66.418C64.409 63.34 66.467 58.98 66.467 54.133A16.8 16.8 0 0 0 64.797 46.85C65.269 47.057 65.741 47.262 66.232 47.434 66.483 48.288 67.123 49.938 68.659 51.928 70.827 54.733 73.024 56.297 73.072 56.334L73.641 56.738 74.192 56.304C74.25 56.259 76.176 54.74 78.314 51.591 79.577 49.737 80.076 48.237 80.268 47.255A20.5 20.5 0 0 0 84.191 45.265C85.721 46.31 86.907 47.619 87.849 49.154 90.257 53.105 91 58.841 91.042 65.349M68.469 48.058A20.8 20.8 0 0 0 73.001 48.576C74.78 48.576 76.501 48.336 78.147 47.912 77.895 48.609 77.476 49.494 76.766 50.541A24.5 24.5 0 0 1 74.129 53.809C73.92 54.026 73.733 54.207 73.577 54.356A23 23 0 0 1 70.139 50.784C69.313 49.712 68.8 48.783 68.469 48.058M86.515 43.536C86.548 43.509 86.583 43.484 86.616 43.456 86.629 43.522 86.644 43.574 86.658 43.638 86.612 43.602 86.562 43.572 86.515 43.536M73.001 45.792C64.689 45.774 57.713 40.119 55.692 32.444A9 9 0 0 0 57.51 32.045S67.786 28.709 70.61 25.07C73.432 21.43 73.568 19.846 73.568 19.846S73.702 18.261 74.539 20.387C74.539 20.387 76.171 24.533 80.422 26.949 84.672 29.363 89.275 33.144 89.275 33.144S89.325 33.181 89.393 33.228C89.562 33.426 89.729 33.607 89.891 33.765 87.455 40.758 80.824 45.775 73.001 45.792M68.584 37.365C69.738 37.365 70.673 35.85 70.673 33.981S69.738 30.598 68.584 30.598C67.432 30.598 66.497 32.113 66.497 33.981S67.433 37.365 68.584 37.365M77.8 37.365C78.953 37.365 79.889 35.85 79.889 33.981S78.953 30.598 77.8 30.598 75.711 32.113 75.711 33.981C75.713 35.85 76.648 37.365 77.8 37.365M18.344 33.997C19.646 33.997 20.698 32.291 20.698 30.182S19.644 26.366 18.344 26.366C17.046 26.366 15.992 28.074 15.992 30.182S17.045 33.997 18.344 33.997" data-fill-palette-color="accent"></path></svg></g></svg></g><g><rect width="70.92707120961468" height="5.682762316956203" y="154.78278398264405" x="293.5797810009038" fill="#ffffff" data-fill-palette-color="accent"></rect><rect width="70.92707120961468" height="5.682762316956203" y="154.78278398264405" x="31.013147789481536" fill="#ffffff" data-fill-palette-color="accent"></rect><rect width="70.92707120961468" height="5.682762316956203" y="143.41725934873165" x="293.5797810009038" fill="#ffffff" data-fill-palette-color="accent"></rect><rect width="70.92707120961468" height="5.682762316956203" y="143.41725934873165" x="31.013147789481536" fill="#ffffff" data-fill-palette-color="accent"></rect></g></svg></g><defs></defs></svg><rect width="333.4937044210369" height="247.2" fill="none" stroke="none" visibility="hidden"></rect></g></svg></g></svg>